<svg viewBox="0 0 250 44" xmlns="http://www.w3.org/2000/svg"><g fill="#2e3192"><path d="m48.5 18.55a10.72 10.72 0 1 0 10.65 10.72 10.69 10.69 0 0 0 -10.65-10.72zm-.67 14.6a4.92 4.92 0 1 1 5-4.91 5 5 0 0 1 -5 4.91z"/><path d="m26.89 24.66h-.24z"/><path d="m22.61 26.73a6 6 0 0 1 1.25-1.1 8.06 8.06 0 0 0 -1.25.89z"/><path d="m16.25 41.22h1.85z"/><path d="m27.16 23.75c-.05.2-.1.4-.16.6a12.3 12.3 0 0 0 -1.37.08 12.26 12.26 0 0 1 1.37-.08l-.1.3q.36 0 .72 0h.19a.91.91 0 0 0 .07-.14c.1-.22.2-.44.29-.67a8 8 0 0 0 -1-.06z"/><path d="m24.78 25.12a4.88 4.88 0 0 0 -.92.51 6.11 6.11 0 0 1 .67-.35 7 7 0 0 1 2.11-.6 5.7 5.7 0 0 0 -1 .15 6.55 6.55 0 0 0 -.86.29z"/><path d="m25.63 24.43a10.43 10.43 0 0 0 -2.62.69l-.4.17v1.23a7.49 7.49 0 0 1 1.25-.9 6.45 6.45 0 0 1 .93-.51 5.91 5.91 0 0 1 .84-.28 5.71 5.71 0 0 1 1-.16h.25l.1-.3a12.28 12.28 0 0 0 -1.35.06z"/><path d="m25.63 24.43a10.43 10.43 0 0 0 -2.62.69l-.4.17v1.23a7.49 7.49 0 0 1 1.25-.9 6.45 6.45 0 0 1 .93-.51 5.91 5.91 0 0 1 .84-.28 5.71 5.71 0 0 1 1-.16h.25l.1-.3a12.28 12.28 0 0 0 -1.35.06z"/><path d="m25.63 24.43a12.28 12.28 0 0 1 1.37-.09c.06-.19.11-.39.16-.6a7.5 7.5 0 0 0 -4.55 1.54l.4-.17a10.43 10.43 0 0 1 2.62-.68z"/><path d="m25.63 24.43a12.28 12.28 0 0 1 1.37-.09c.06-.19.11-.39.16-.6a7.5 7.5 0 0 0 -4.55 1.54l.4-.17a10.43 10.43 0 0 1 2.62-.68z"/><path d="m28.86 18.46a10.42 10.42 0 0 0 -1.69-.13 10.68 10.68 0 0 0 -6.2 2 9.61 9.61 0 0 0 -.88.66 10.86 10.86 0 0 0 -3 4.18 11.2 11.2 0 0 0 -.69 2.54 1.5 1.5 0 0 1 0 .2v.39s0 .5-.05.75h6.36v-3.76a7.48 7.48 0 0 1 4.56-1.54 8 8 0 0 1 1 .06 11 11 0 0 0 .59-5.35z"/><path d="m20.2 41.24h1z"/><path d="m16.24 29v4.58 1.08 6.57h6.37v-12.23z"/></g><path d="m52.47 26.19a5.53 5.53 0 0 1 .09 1.09s0 .09 0 .13a5.17 5.17 0 0 1 -5.21 5.13 5.11 5.11 0 0 1 -4.35-2.69l-2.89 1.29c2.57 2.23 3.17 3 7.32 3.14 5 .15 6.29-.79 7.64-5.57z" fill="#1b1464"/><path d="m22.59 28.4s-.27-3.73 5.21-3.78l.36-.81a8.62 8.62 0 0 0 -4.5.66 2.05 2.05 0 0 0 -1.06 1.79z" fill="#1b1464"/><path d="m15.7 12.08a5.68 5.68 0 0 1 .12 1.09v.14a5.17 5.17 0 0 1 -5.06 5.28 5 5 0 0 1 -4.34-2.59l-5.2 2.31a10.7 10.7 0 0 0 9.54 6.06 10.86 10.86 0 0 0 10.4-8.37z" fill="#1b1464"/><path d="m19.88 7.25c-.11-.18-.23-.36-.35-.54l-.15-.22c-.11-.15-.22-.3-.34-.44s-.22-.27-.34-.4a11.23 11.23 0 0 0 -4.25-3h-.13l-.32-.17a10.9 10.9 0 0 0 -3.45-.58 11 11 0 0 0 -10.18 7 5.22 5.22 0 0 0 -.37 1.9v30.35h6.38v-17.27a11 11 0 0 0 4 .76 8.27 8.27 0 0 0 1-.05 10.94 10.94 0 0 0 6.24-2.67 9.18 9.18 0 0 0 1.08-1.08 11.76 11.76 0 0 0 1.62-2.44 10.74 10.74 0 0 0 .57-1.4c.11-.36.2-.75.29-1.12a11.18 11.18 0 0 0 .31-2.11c0-.12 0-.23 0-.35s0-.21 0-.31a11.29 11.29 0 0 0 -1.61-5.86zm-4.77 10.84a5 5 0 0 1 -3.7 1.64 5 5 0 0 1 -5-5.05c0-.16 0-.31 0-.46v-.25-.25l.06-.25a2.33 2.33 0 0 1 .07-.25v-.14a5 5 0 0 1 9-1.14v.09a5 5 0 0 1 -.63 6z" fill="#2e3192"/><path d="m57.89 2h-5v17.25a10.93 10.93 0 0 0 -4-.76 8.27 8.27 0 0 0 -1 .05 10.79 10.79 0 0 0 -5 1.75 9.78 9.78 0 0 0 -1.2.92 10.1 10.1 0 0 0 -1.09 1.08 11.33 11.33 0 0 0 -1.61 2.44 10.74 10.74 0 0 0 -.55 1.36 10.34 10.34 0 0 0 -.3 1.09 11 11 0 0 0 4.76 6.88 10.91 10.91 0 0 0 5 1.76h1a10.82 10.82 0 0 0 4-.77 12.65 12.65 0 0 0 1.18-.55 8.17 8.17 0 0 0 1.86-1.27 11.9 11.9 0 0 0 2-2.15v.17a11 11 0 0 1 -19.94-3.63 11.57 11.57 0 0 0 -.26 2.38 11.1 11.1 0 0 0 10.95 11.23 11 11 0 0 0 10.19-7 5.13 5.13 0 0 0 .36-1.9v-30.33zm-5 26.93v.25a2.17 2.17 0 0 0 0 .25l-.06.24-.06.25v.14a.36.36 0 0 0 0 .11 6.45 6.45 0 0 1 -1.09 1.77 5 5 0 0 1 -3.64 1.58 5.06 5.06 0 0 1 -3.91-8.52 5 5 0 0 1 3.71-1.65 5 5 0 0 1 5 5.06c.02.19.01.35 0 .5z" fill="#2e3192"/><path d="m35.45 25a11.17 11.17 0 0 0 -5.3-5v8.46 12.7h6.41v-12.81a11.07 11.07 0 0 0 -1.11-3.35z" fill="#cb2128"/><path d="m63.59 32.19v.32a8.54 8.54 0 0 0 .12 1.43 7.53 7.53 0 0 0 .52 1.77 8.05 8.05 0 0 0 3.74 4 7.79 7.79 0 0 0 3.22.87h.81a7.79 7.79 0 0 0 2.33-.47 8.07 8.07 0 0 0 4.67-4.4 8 8 0 0 0 .57-2.06 7.28 7.28 0 0 0 .08-1.14v-.32h-1.28a6.25 6.25 0 0 1 -2.37 3.52 6 6 0 0 1 -1.68.9 6.24 6.24 0 0 1 -2 .34 6.13 6.13 0 0 1 -3.71-1.24 5.25 5.25 0 0 1 -.62-.53 6.25 6.25 0 0 1 -1.72-3 6.08 6.08 0 0 1 -.17-1.18h-2.36a8.3 8.3 0 0 0 -.15 1.19z" fill="#2e3192"/><path d="m79.65 32.51a7.12 7.12 0 0 1 -.08 1.14 7.6 7.6 0 0 1 -.57 2.06 8.05 8.05 0 0 1 -4.63 4.4 7.91 7.91 0 0 1 -2.33.47 10.56 10.56 0 0 0 2.33-.33 11.2 11.2 0 0 0 6.37-4.37 1 1 0 0 0 .12-.17 11.16 11.16 0 0 0 1.61-3.52h-2.82z" fill="#26247b"/><path d="m80.83 22.88-.1-.14a11.15 11.15 0 0 0 -9.11-4.74 11 11 0 0 0 -3.64.61 11.28 11.28 0 0 0 -5.58 4.24 13.11 13.11 0 0 0 -.8 1.36 11.38 11.38 0 0 0 -1.07 3.39v.33a9.79 9.79 0 0 0 -.08 1.33 11.38 11.38 0 0 0 .08 1.74c.06.41.14.82.24 1.22a12.14 12.14 0 0 0 .83 2.2 11.72 11.72 0 0 0 .78 1.32 11.23 11.23 0 0 0 5.62 4.26 10.44 10.44 0 0 0 3.22.6 7.83 7.83 0 0 1 -3.22-.89 8.05 8.05 0 0 1 -3.74-4 7.53 7.53 0 0 1 -.52-1.77 8.36 8.36 0 0 1 -.12-1.43v-.32a8.3 8.3 0 0 1 .12-1.19h17.74a11.26 11.26 0 0 0 1.09-3.34c0-.15.05-.3.06-.45a11.18 11.18 0 0 0 -1.8-4.33zm-13.94 4.75a6.2 6.2 0 0 1 10.85 0z" fill="#2e3192"/><path d="m77.74 27.63h5a10.27 10.27 0 0 1 0 3.34h-19a7.71 7.71 0 0 1 1.47-3.34z" fill="#2e3192"/><path d="m77.74 27.63h-12.53a8.42 8.42 0 0 0 -1.47 3.37h19a11.74 11.74 0 0 0 -.22-4.41 11.15 11.15 0 0 1 -4.62 1.07z" fill="#2e3192"/><path d="m30.15 27.22v13.86h6.41v-14.26a4.92 4.92 0 0 1 -6.41.4z" fill="#cb2128"/><path d="m30.15 19.24v8a4.92 4.92 0 0 0 6.41-.4v-7.2a4.92 4.92 0 0 0 -6.41-.4z" fill="#cb2128"/><path d="m37 14.81v-2.07a5.53 5.53 0 0 0 -7.22-.45v2.25a6.12 6.12 0 0 1 3.43-1 6.06 6.06 0 0 1 3.79 1.27z" fill="#cb2128"/><path d="m37 18.2v-2.08a5.56 5.56 0 0 0 -7.22-.45v2.26a6.11 6.11 0 0 1 7.22.27z" fill="#cb2128"/><path d="m85 36 .89-1.92a15.28 15.28 0 0 0 7.78 2.17c3 0 4.12-.79 4.12-2 0-3.69-13.53.08-13.53-8.92.01-4.33 3.84-7.33 10.38-7.33a21.76 21.76 0 0 1 5 .58 3.25 3.25 0 0 1 2.19 4.54l-.69 1.49a12.89 12.89 0 0 0 -6.5-1.61c-2.91 0-4.16.92-4.16 2.09 0 3.86 13.53.13 13.53 9 0 4.19-3.87 7.16-10.58 7.16a22.08 22.08 0 0 1 -6.62-1 3 3 0 0 1 -1.81-4.25z" fill="#2e3192"/><path d="m131.83 36 .89-1.92a15.34 15.34 0 0 0 7.78 2.17c3 0 4.12-.79 4.12-2 0-3.69-13.53.08-13.53-8.92 0-4.28 3.83-7.29 10.37-7.29a21.7 21.7 0 0 1 5 .58 3.25 3.25 0 0 1 2.19 4.54l-.69 1.49a12.89 12.89 0 0 0 -6.5-1.65c-2.91 0-4.16.92-4.16 2.09 0 3.86 13.53.13 13.53 9 0 4.19-3.87 7.16-10.57 7.16a22.15 22.15 0 0 1 -6.63-1 3 3 0 0 1 -1.8-4.25z" fill="#2e3192"/><path d="m117.49 27.1 5.26-9.1h-10.52z" fill="#d42229"/><path d="m129.86 23.31a5.32 5.32 0 0 1 -.1 1.07l-1.78 3-7.98 11.75-2 3.34a5.28 5.28 0 0 1 -6.1.34h-.06l8-11.75 1.86-3.16 5.39-9.15h.15a5.35 5.35 0 0 1 2.62 4.56z" fill="#2e3192"/><path d="m114.66 34-1.89 3.19-6.27-10.36-1.27-2.12a5.15 5.15 0 0 1 -.26-1.63 5.36 5.36 0 0 1 2.25-4.37l.38-.24 5.57 9.12 1.48 2.41a3.9 3.9 0 0 1 .01 4z" fill="#2e3192"/><path d="m245.15 9.76a4.88 4.88 0 1 1 4.85-4.88 4.87 4.87 0 0 1 -4.85 4.88zm0-9.12a4.24 4.24 0 1 0 4.22 4.24 4.23 4.23 0 0 0 -4.22-4.24z"/><path d="m247.42 7.47a6.31 6.31 0 0 1 -1 .39 3.41 3.41 0 0 1 -1 .14 3.67 3.67 0 0 1 -1.22-.2 2.51 2.51 0 0 1 -.95-.59 2.7 2.7 0 0 1 -.62-1 4.07 4.07 0 0 1 -.22-1.42 3.27 3.27 0 0 1 .83-2.37 2.86 2.86 0 0 1 2.18-.86 3.68 3.68 0 0 1 1 .15 5.14 5.14 0 0 1 .93.36v1.14h-.06a4 4 0 0 0 -1-.56 2.53 2.53 0 0 0 -1-.2 1.75 1.75 0 0 0 -1.29.55 2.68 2.68 0 0 0 -.51 1.75 2.62 2.62 0 0 0 .51 1.75 1.72 1.72 0 0 0 1.4.6 2.87 2.87 0 0 0 .64-.08 3 3 0 0 0 .58-.22 4.23 4.23 0 0 0 .42-.25 2.58 2.58 0 0 0 .31-.22h.06v1.14z"/><path d="m161.07 11.94h16.41a.08.08 0 0 1 0 0v-6.94h-24.06v14.57q0 3.49 0 7v7.68 6.94h7.65a0 0 0 0 0 0 0h5 4.17q3.65 0 7.29.07v-7h-16.45v-.44c-.11-2.4-.09-4.83 0-7.24h16.5v-7h-7.23c-3.07 0-6.15.05-9.22.06v-.06-.88c-.06-2.14 0-4.27 0-6.4v-.36z" fill="#fba919"/><path d="m203.4 26.42a1 1 0 0 1 .26-1.38c2.42-1.6 4.84-3.34 6.05-6.09 1.69-3.71 1.09-8.66-1.87-11.56-2.15-1.91-5.12-2.46-7.9-2.43h-17.05v36.24h7.73v-2.2c.14-1.76 0-3.53.06-5.29 0-7.33-.09-14.66.07-22 3.24.16 6.51-.17 9.74.2 2.41.48 2.46 3.54 1.7 5.37-1.38 2.34-3.86 3.32-6.37 4a3.09 3.09 0 0 0 -2.31 3.12 5.12 5.12 0 0 0 1 2.79c3.4 4.54 6.47 9.39 9.82 14h9.59z" fill="#fba919"/><path d="m236.36 6.12-.12-.1a5.32 5.32 0 0 0 -3.16-1.02h-19.75v36.21h7.46v-23.7c0-1.88 0-3.77.06-5.66 3.08 0 6.17-.06 9.27.05h.2a2.17 2.17 0 0 1 2 1.64 7.43 7.43 0 0 1 -.38 4.88c-1 2-1.27 2-3 2.65a8.94 8.94 0 0 1 -2.16.51c-.23 0-2.33.2-3.05.32v5.14a21.73 21.73 0 0 0 5.34.7 11.62 11.62 0 0 0 3.65-.58 12 12 0 0 0 8.28-10.35 10.55 10.55 0 0 0 .06-1.13 12 12 0 0 0 -4.7-9.56z" fill="#fba919"/></svg>